<?xml version="1.0" encoding="UTF-8" standalone="no"?>
<!-- Created with Inkscape (http://www.inkscape.org/) -->

<svg
   width="256.0px"
   height="256.0px"
   viewBox="0 0 256.0 256.0"
   version="1.1"
   id="SVGRoot"
   sodipodi:docname="logo3.svg"
   inkscape:version="1.1 (c68e22c387, 2021-05-23)"
   xmlns:inkscape="http://www.inkscape.org/namespaces/inkscape"
   xmlns:sodipodi="http://sodipodi.sourceforge.net/DTD/sodipodi-0.dtd"
   xmlns="http://www.w3.org/2000/svg"
   xmlns:svg="http://www.w3.org/2000/svg">
  <sodipodi:namedview
     id="namedview7776"
     pagecolor="#505050"
     bordercolor="#ffffff"
     borderopacity="1"
     inkscape:pageshadow="0"
     inkscape:pageopacity="0"
     inkscape:pagecheckerboard="1"
     inkscape:document-units="px"
     showgrid="true"
     inkscape:zoom="0.99775533"
     inkscape:cx="139.31271"
     inkscape:cy="146.82958"
     inkscape:window-width="1366"
     inkscape:window-height="745"
     inkscape:window-x="-8"
     inkscape:window-y="-8"
     inkscape:window-maximized="1"
     inkscape:current-layer="layer1">
    <inkscape:grid
       type="xygrid"
       id="grid7839" />
  </sodipodi:namedview>
  <defs
     id="defs7771" />
  <g
     inkscape:label="Layer 1"
     inkscape:groupmode="layer"
     id="layer1">
    <path
       style="fill:#000000;fill-opacity:1;stroke:#000000;stroke-width:2.5236;stroke-miterlimit:4;stroke-dasharray:none;stroke-opacity:1"
       d="M 31.97615,254.26757 C 21.19757,253.15268 9.6199901,244.81993 4.6642701,234.61035 c -1.64212,-3.38301 -2.16033,-6.40046 -2.72239,-15.85186 -0.9066,-15.24501 -0.90686,-95.37083 -2.6e-4,-103.83741 C 3.3002301,102.23205 10.28297,92.417153 21.99314,86.736772 l 6.61453,-3.208581 47.83894,-0.374141 c 26.31141,-0.205765 51.6543,-0.09337 56.31753,0.249776 l 8.4786,0.623898 8.58057,7.44021 c 11.63958,10.092656 48.80379,46.774286 50.35625,49.702366 0.68718,1.29607 0.95199,2.64892 0.58848,3.00632 -1.10578,1.08721 -50.75927,1.34842 -54.37205,0.28603 -4.42387,-1.30089 -4.9895,-3.31391 -5.40678,-19.24207 -0.39994,-15.26642 -1.01645,-17.07987 -6.66125,-19.59411 -2.89491,-1.28942 -8.37881,-1.441 -52.13105,-1.441 -55.53965,0 -53.70981,-0.21143 -57.43372,6.63603 l -2.03416,3.74039 v 54.97588 54.97589 l 2.46831,3.17623 c 5.1205,6.58908 0.2998,6.1733 74.61968,6.43594 76.16225,0.26917 123.36885,-0.60932 127.04258,-2.36414 1.30916,-0.62535 3.0932,-2.54227 3.96453,-4.25983 1.48204,-2.92141 1.60058,-7.94662 1.83809,-77.91953 0.15903,-46.85181 -0.0752,-76.896634 -0.62713,-80.41729 -1.07252,-6.8419 -3.96331,-9.973189 -9.92274,-10.748222 -2.0901,-0.27182 -50.77979,-0.822802 -108.19933,-1.224414 C 38.88283,56.66762 8.8203201,56.182845 7.0484901,55.46915 c -4.61457,-1.858733 -5.35509,-5.367884 -5.41237,-25.648052 -0.0472,-16.706112 0.0941,-18.435433 1.76625,-21.6175478 1.17226,-2.230837 3.04895,-4.072794 5.28603,-5.188212 3.3254899,-1.658107 5.2119799,-1.729408 45.7567499,-1.729408 53.90259,0 49.89757,-1.19386002 59.46618,17.7263958 6.42062,12.695625 8.58121,14.696149 17.84261,16.520702 2.60398,0.513006 24.83458,1.18443 50.87751,1.536652 l 46.25279,0.625553 5.48267,2.872498 c 6.76934,3.546621 13.70981,10.608062 16.67558,16.96627 3.70495,7.942909 4.08694,17.627589 3.44284,87.292459 -0.321,34.71779 -0.89317,68.57088 -1.27155,75.22908 -0.6074,10.6882 -0.96663,12.64088 -3.06801,16.67504 -4.35064,8.35221 -10.78241,13.26369 -21.45491,16.38354 -4.66512,1.36373 -12.8956,1.49951 -98.03872,1.61742 -51.12036,0.0708 -95.52455,-0.13799 -98.67599,-0.46397 z"
       id="path6875" />
  </g>
</svg>
